PathFileType	4	(X/Y/Z)	D:/视觉行为平台/test_2/20260814/mocap/street1/street1-Unnamed.trc
DataRate	CameraRate	NumFrames	NumMarkers	Units	OrigDataRate	OrigDataStartFrame	OrigNumFrames	useTimeStamp
90	90	     444	0	mm	90	1	     22628	         1
Frame#	Time	Timestamp	
			X1	Y1	Z1	X2	Y2	Z2	X3	Y3	Z3	X4	Y4	Z4	X5	Y5	Z5	X6	Y6	Z6	X7	Y7	Z7	X8	Y8	Z8	X9	Y9	Z9	X10	Y10	Z10	X11	Y11	Z11	X12	Y12	Z12	X13	Y13	Z13	X14	Y14	Z14	X15	Y15	Z15	X16	Y16	Z16	X17	Y17	Z17	X18	Y18	Z18	X19	Y19	Z19	X20	Y20	Z20	X21	Y21	Z21	X22	Y22	Z22	X23	Y23	Z23	X24	Y24	Z24	X25	Y25	Z25	X26	Y26	Z26	X27	Y27	Z27	X28	Y28	Z28	X29	Y29	Z29	X30	Y30	Z30	X31	Y31	Z31	X32	Y32	Z32	X33	Y33	Z33	X34	Y34	Z34	X35	Y35	Z35	X36	Y36	Z36	X37	Y37	Z37	X38	Y38	Z38	X39	Y39	Z39	X40	Y40	Z40	X41	Y41	Z41	X42	Y42	Z42	X43	Y43	Z43	X44	Y44	Z44	X45	Y45	Z45	X46	Y46	Z46	X47	Y47	Z47	X48	Y48	Z48	X49	Y49	Z49	X50	Y50	Z50	X51	Y51	Z51	X52	Y52	Z52	X53	Y53	Z53	X54	Y54	Z54	X55	Y55	Z55	

1	0.000	1787218947016	
2	0.011	1787218947033	
3	0.022	1787218947040	
4	0.033	1787218947049	
5	0.044	1787218947060	
6	0.055	1787218947071	
7	0.066	1787218947083	
8	0.077	1787218947094	
9	0.088	1787218947105	
10	0.100	1787218947116	
11	0.111	1787218947127	
12	0.122	1787218947138	
13	0.133	1787218947149	
14	0.144	1787218947161	
15	0.155	1787218947172	
16	0.166	1787218947182	
17	0.177	1787218947194	
18	0.188	1787218947205	
19	0.200	1787218947216	
20	0.211	1787218947227	
21	0.222	1787218947238	
22	0.233	1787218947249	
23	0.244	1787218947260	
24	0.255	1787218947271	
25	0.266	1787218947282	
26	0.277	1787218947293	
27	0.288	1787218947305	
28	0.300	1787218947316	
29	0.311	1787218947327	
30	0.322	1787218947338	
31	0.333	1787218947349	
32	0.344	1787218947360	
33	0.355	1787218947371	
34	0.366	1787218947382	
35	0.377	1787218947394	
36	0.388	1787218947405	
37	0.400	1787218947416	
38	0.411	1787218947427	
39	0.422	1787218947438	
40	0.433	1787218947449	
41	0.444	1787218947460	
42	0.455	1787218947471	
43	0.466	1787218947483	
44	0.477	1787218947494	
45	0.488	1787218947505	
46	0.500	1787218947516	
47	0.511	1787218947527	
48	0.522	1787218947538	
49	0.533	1787218947550	
50	0.544	1787218947560	
51	0.555	1787218947571	
52	0.566	1787218947583	
53	0.577	1787218947594	
54	0.588	1787218947605	
55	0.600	1787218947616	
56	0.611	1787218947627	
57	0.622	1787218947638	
58	0.633	1787218947649	
59	0.644	1787218947660	
60	0.655	1787218947672	
61	0.666	1787218947683	
62	0.677	1787218947694	
63	0.688	1787218947705	
64	0.700	1787218947716	
65	0.711	1787218947727	
66	0.722	1787218947738	
67	0.733	1787218947749	
68	0.744	1787218947760	
69	0.755	1787218947771	
70	0.766	1787218947783	
71	0.777	1787218947793	
72	0.788	1787218947805	
73	0.800	1787218947816	
74	0.811	1787218947827	
75	0.822	1787218947838	
76	0.833	1787218947849	
77	0.844	1787218947860	
78	0.855	1787218947871	
79	0.866	1787218947883	
80	0.877	1787218947893	
81	0.888	1787218947905	
82	0.900	1787218947916	
83	0.911	1787218947927	
84	0.922	1787218947938	
85	0.933	1787218947949	
86	0.944	1787218947960	
87	0.955	1787218947971	
88	0.966	1787218947982	
89	0.977	1787218947994	
90	0.988	1787218948005	
91	1.000	1787218948016	
92	1.011	1787218948027	
93	1.022	1787218948038	
94	1.033	1787218948049	
95	1.044	1787218948060	
96	1.055	1787218948072	
97	1.066	1787218948083	
98	1.077	1787218948094	
99	1.088	1787218948105	
100	1.100	1787218948116	
101	1.111	1787218948127	
102	1.122	1787218948138	
103	1.133	1787218948149	
104	1.144	1787218948160	
105	1.155	1787218948171	
106	1.166	1787218948182	
107	1.177	1787218948194	
108	1.188	1787218948204	
109	1.200	1787218948216	
110	1.211	1787218948227	
111	1.222	1787218948238	
112	1.233	1787218948249	
113	1.244	1787218948261	
114	1.255	1787218948271	
115	1.266	1787218948282	
116	1.277	1787218948294	
117	1.288	1787218948305	
118	1.300	1787218948316	
119	1.311	1787218948327	
120	1.322	1787218948338	
121	1.333	1787218948349	
122	1.344	1787218948360	
123	1.355	1787218948371	
124	1.366	1787218948382	
125	1.377	1787218948394	
126	1.388	1787218948405	
127	1.400	1787218948416	
128	1.411	1787218948427	
129	1.422	1787218948438	
130	1.433	1787218948449	
131	1.444	1787218948460	
132	1.455	1787218948471	
133	1.466	1787218948482	
134	1.477	1787218948494	
135	1.488	1787218948505	
136	1.500	1787218948516	
137	1.511	1787218948527	
138	1.522	1787218948538	
139	1.533	1787218948549	
140	1.544	1787218948560	
141	1.555	1787218948571	
142	1.566	1787218948582	
143	1.577	1787218948594	
144	1.588	1787218948604	
145	1.600	1787218948616	
146	1.611	1787218948627	
147	1.622	1787218948638	
148	1.633	1787218948650	
149	1.644	1787218948661	
150	1.655	1787218948671	
151	1.666	1787218948682	
152	1.677	1787218948694	
153	1.688	1787218948705	
154	1.700	1787218948716	
155	1.711	1787218948727	
156	1.722	1787218948738	
157	1.733	1787218948749	
158	1.744	1787218948761	
159	1.755	1787218948771	
160	1.766	1787218948783	
161	1.777	1787218948794	
162	1.788	1787218948805	
163	1.800	1787218948816	
164	1.811	1787218948827	
165	1.822	1787218948838	
166	1.833	1787218948849	
167	1.844	1787218948860	
168	1.855	1787218948871	
169	1.866	1787218948882	
170	1.877	1787218948894	
171	1.888	1787218948905	
172	1.900	1787218948916	
173	1.911	1787218948927	
174	1.922	1787218948938	
175	1.933	1787218948949	
176	1.944	1787218948960	
177	1.955	1787218948971	
178	1.966	1787218948982	
179	1.977	1787218948994	
180	1.988	1787218949005	
181	2.000	1787218949016	
182	2.011	1787218949027	
183	2.022	1787218949038	
184	2.033	1787218949050	
185	2.044	1787218949061	
186	2.055	1787218949072	
187	2.066	1787218949082	
188	2.077	1787218949093	
189	2.088	1787218949105	
190	2.100	1787218949116	
191	2.111	1787218949127	
192	2.122	1787218949138	
193	2.133	1787218949149	
194	2.144	1787218949160	
195	2.155	1787218949171	
196	2.166	1787218949183	
197	2.177	1787218949194	
198	2.188	1787218949205	
199	2.200	1787218949216	
200	2.211	1787218949227	
201	2.222	1787218949238	
202	2.233	1787218949249	
203	2.244	1787218949260	
204	2.255	1787218949271	
205	2.266	1787218949282	
206	2.277	1787218949294	
207	2.288	1787218949305	
208	2.300	1787218949316	
209	2.311	1787218949327	
210	2.322	1787218949338	
211	2.333	1787218949350	
212	2.344	1787218949361	
213	2.355	1787218949372	
214	2.366	1787218949382	
215	2.377	1787218949394	
216	2.388	1787218949405	
217	2.400	1787218949416	
218	2.411	1787218949427	
219	2.422	1787218949438	
220	2.433	1787218949449	
221	2.444	1787218949460	
222	2.455	1787218949471	
223	2.466	1787218949482	
224	2.477	1787218949494	
225	2.488	1787218949504	
226	2.500	1787218949516	
227	2.511	1787218949527	
228	2.522	1787218949538	
229	2.533	1787218949549	
230	2.544	1787218949560	
231	2.555	1787218949571	
232	2.566	1787218949583	
233	2.577	1787218949594	
234	2.588	1787218949604	
235	2.600	1787218949616	
236	2.611	1787218949627	
237	2.622	1787218949638	
238	2.633	1787218949649	
239	2.644	1787218949661	
240	2.655	1787218949671	
241	2.666	1787218949683	
242	2.677	1787218949694	
243	2.688	1787218949705	
244	2.700	1787218949716	
245	2.711	1787218949727	
246	2.722	1787218949739	
247	2.733	1787218949749	
248	2.744	1787218949760	
249	2.755	1787218949772	
250	2.766	1787218949783	
251	2.777	1787218949794	
252	2.788	1787218949805	
253	2.800	1787218949816	
254	2.811	1787218949827	
255	2.822	1787218949838	
256	2.833	1787218949849	
257	2.844	1787218949861	
258	2.855	1787218949871	
259	2.866	1787218949882	
260	2.877	1787218949894	
261	2.888	1787218949905	
262	2.900	1787218949916	
263	2.911	1787218949927	
264	2.922	1787218949938	
265	2.933	1787218949949	
266	2.944	1787218949960	
267	2.955	1787218949971	
268	2.966	1787218949983	
269	2.977	1787218949993	
270	2.988	1787218950004	
271	3.000	1787218950016	
272	3.011	1787218950027	
273	3.022	1787218950038	
274	3.033	1787218950049	
275	3.044	1787218950060	
276	3.055	1787218950071	
277	3.066	1787218950083	
278	3.077	1787218950094	
279	3.088	1787218950105	
280	3.100	1787218950116	
281	3.111	1787218950127	
282	3.122	1787218950138	
283	3.133	1787218950149	
284	3.144	1787218950160	
285	3.155	1787218950171	
286	3.166	1787218950182	
287	3.177	1787218950194	
288	3.188	1787218950205	
289	3.200	1787218950216	
290	3.211	1787218950227	
291	3.222	1787218950238	
292	3.233	1787218950249	
293	3.244	1787218950260	
294	3.255	1787218950271	
295	3.266	1787218950283	
296	3.277	1787218950294	
297	3.288	1787218950305	
298	3.300	1787218950316	
299	3.311	1787218950327	
300	3.322	1787218950338	
301	3.333	1787218950349	
302	3.344	1787218950360	
303	3.355	1787218950372	
304	3.366	1787218950383	
305	3.377	1787218950394	
306	3.388	1787218950405	
307	3.400	1787218950416	
308	3.411	1787218950427	
309	3.422	1787218950438	
310	3.433	1787218950449	
311	3.444	1787218950460	
312	3.455	1787218950471	
313	3.466	1787218950483	
314	3.477	1787218950494	
315	3.488	1787218950505	
316	3.500	1787218950516	
317	3.511	1787218950527	
318	3.522	1787218950538	
319	3.533	1787218950549	
320	3.544	1787218950560	
321	3.555	1787218950571	
322	3.566	1787218950582	
323	3.577	1787218950594	
324	3.588	1787218950604	
325	3.600	1787218950616	
326	3.611	1787218950627	
327	3.622	1787218950638	
328	3.633	1787218950649	
329	3.644	1787218950660	
330	3.655	1787218950671	
331	3.666	1787218950683	
332	3.677	1787218950694	
333	3.688	1787218950705	
334	3.700	1787218950716	
335	3.711	1787218950727	
336	3.722	1787218950738	
337	3.733	1787218950749	
338	3.744	1787218950760	
339	3.755	1787218950771	
340	3.766	1787218950782	
341	3.777	1787218950794	
342	3.788	1787218950805	
343	3.800	1787218950816	
344	3.811	1787218950827	
345	3.822	1787218950838	
346	3.833	1787218950849	
347	3.844	1787218950861	
348	3.855	1787218950872	
349	3.866	1787218950883	
350	3.877	1787218950894	
351	3.888	1787218950905	
352	3.900	1787218950916	
353	3.911	1787218950927	
354	3.922	1787218950938	
355	3.933	1787218950949	
356	3.944	1787218950960	
357	3.955	1787218950971	
358	3.966	1787218950983	
359	3.977	1787218950994	
360	3.988	1787218951005	
361	4.000	1787218951016	
362	4.011	1787218951027	
363	4.022	1787218951038	
364	4.033	1787218951049	
365	4.044	1787218951060	
366	4.055	1787218951071	
367	4.066	1787218951083	
368	4.077	1787218951094	
369	4.088	1787218951105	
370	4.100	1787218951116	
371	4.111	1787218951127	
372	4.122	1787218951138	
373	4.133	1787218951149	
374	4.144	1787218951160	
375	4.155	1787218951172	
376	4.166	1787218951182	
377	4.177	1787218951194	
378	4.188	1787218951205	
379	4.200	1787218951216	
380	4.211	1787218951227	
381	4.222	1787218951238	
382	4.233	1787218951249	
383	4.244	1787218951261	
384	4.255	1787218951271	
385	4.266	1787218951282	
386	4.277	1787218951293	
387	4.288	1787218951305	
388	4.300	1787218951317	
389	4.311	1787218951327	
390	4.322	1787218951338	
391	4.333	1787218951349	
392	4.344	1787218951360	
393	4.355	1787218951371	
394	4.366	1787218951382	
395	4.377	1787218951393	
396	4.388	1787218951405	
397	4.400	1787218951416	
398	4.411	1787218951427	
399	4.422	1787218951438	
400	4.433	1787218951449	
401	4.444	1787218951460	
402	4.455	1787218951472	
403	4.466	1787218951482	
404	4.477	1787218951494	
405	4.488	1787218951505	
406	4.500	1787218951516	
407	4.511	1787218951527	
408	4.522	1787218951538	
409	4.533	1787218951549	
410	4.544	1787218951561	
411	4.555	1787218951571	
412	4.566	1787218951582	
413	4.577	1787218951594	
414	4.588	1787218951605	
415	4.600	1787218951616	
416	4.611	1787218951627	
417	4.622	1787218951638	
418	4.633	1787218951649	
419	4.644	1787218951660	
420	4.655	1787218951671	
421	4.666	1787218951682	
422	4.677	1787218951693	
423	4.688	1787218951705	
424	4.700	1787218951716	
425	4.711	1787218951727	
426	4.722	1787218951738	
427	4.733	1787218951749	
428	4.744	1787218951760	
429	4.755	1787218951771	
430	4.766	1787218951782	
431	4.777	1787218951793	
432	4.788	1787218951805	
433	4.800	1787218951816	
434	4.811	1787218951827	
435	4.822	1787218951838	
436	4.833	1787218951849	
437	4.844	1787218951860	
438	4.855	1787218951872	
439	4.866	1787218951883	
440	4.877	1787218951893	
441	4.888	1787218951905	
442	4.900	1787218951916	
443	4.911	1787218951927	
444	4.922	1787218951938	
